<?xml version="1.0" encoding="UTF-8"?>
<svg width="143px" height="60px" viewBox="0 0 143 60" version="1.1" xmlns="http://www.w3.org/2000/svg" xmlns:xlink="http://www.w3.org/1999/xlink">
    <!-- Generator: sketchtool 51.3 (57544) - http://www.bohemiancoding.com/sketch -->
    <title>73E5CE61-9CAC-40C7-8B9C-C03B84C1E689</title>
    <desc>Created with sketchtool.</desc>
    <defs></defs>
    <g id="Symbols" stroke="none" stroke-width="1" fill="none" fill-rule="evenodd">
        <g id="ic/logo_congress">
            <g id="Group-10">
                <g id="Group">
                    <g id="logo">
                        <g id="Group-5">
                            <circle id="Oval-7" fill="#555454" cx="31" cy="30" r="29"></circle>
                            <g id="Group">
                                <path d="M40.6482016,49.0494392 C37.1816854,50.9322218 33.1728677,51.8736132 28.9594976,51.6718865 C17.4067089,51.0667063 8.16447783,41.5855507 7.96060509,30.1543703 C7.75673235,17.9162829 17.7464968,7.96443171 30.0468189,7.96443171 C33.5806131,7.96443171 36.9784922,8.77133856 39.9686258,10.2506678 C41.5316501,10.9903324 43.3665048,10.7886057 44.5897413,9.57824542 C46.5598315,7.69546275 46.0161709,4.46783533 43.5703776,3.25747504 C40.2397765,1.64366133 35.551383,0.0298476117 30.0468189,0.0298476117 C13.1933388,0.0298476117 -0.39817738,13.7472642 0.00956810635,30.5578237 C0.417313593,46.6287186 13.8049571,59.5392283 29.9788613,59.6064706 C35.2115951,59.6064706 40.1038613,58.328868 44.3858685,56.0426319 C46.6957467,54.8322717 47.2394074,51.8063709 45.4731898,49.9235883 C44.2499534,48.5115013 42.2785039,48.1752901 40.6482016,49.0494392" id="Fill-5" fill="#32FF10"></path>
                                <path d="M14.3484818,49.8564805 C12.5815847,51.7392632 13.1252453,54.7651639 15.4358031,55.9755242 C19.7171307,58.2617603 24.6100765,59.606605 29.8428103,59.5386904 C46.0846721,59.4721206 59.471636,46.4943686 59.8114239,30.4907159 C60.219849,13.7473987 46.5596956,0.0299820962 29.7068951,0.0299820962 C24.202331,0.0299820962 19.513258,1.64379581 16.1833365,3.25760952 C13.7368636,4.46796981 13.1932029,7.69559724 15.1639728,9.5783799 C16.3872092,10.7887402 18.2220639,10.9904669 19.7850883,10.2508023 C22.7752218,8.77147305 26.1051433,7.96456619 29.7068951,7.96456619 C42.0072173,7.96456619 51.9963021,17.9164174 51.7931089,30.1545048 C51.6565142,41.5856852 42.3470052,51.1334106 30.7942164,51.6720209 C26.5128888,51.8737477 22.5033915,50.9323563 19.1055125,49.0495737 C17.5424881,48.1754246 15.5717183,48.5116358 14.3484818,49.8564805" id="Fill-7" fill="#999999" opacity="0.278515625"></path>
                            </g>
                        </g>
                    </g>
                    <text id="cyber•-Congress" font-family="Play-Regular, Play" font-size="18" font-weight="normal" fill="#555454">
                        <tspan x="69" y="25">cybe</tspan>
                        <tspan x="105.684" y="25" letter-spacing="1.1">r</tspan>
                        <tspan x="113.102" y="25" font-size="16" letter-spacing="1.1">•</tspan>
                        <tspan x="121.866" y="25" font-size="16"> </tspan>
                        <tspan x="125.546" y="25">                      </tspan>
                        <tspan x="69" y="46">Congress</tspan>
                    </text>
                </g>
            </g>
        </g>
    </g>
</svg>