<?xml version="1.0" encoding="UTF-8"?>
<svg width="380px" height="93px" viewBox="0 0 380 93" version="1.1" xmlns="http://www.w3.org/2000/svg" xmlns:xlink="http://www.w3.org/1999/xlink">
    <!-- Generator: sketchtool 51.3 (57544) - http://www.bohemiancoding.com/sketch -->
    <title>70A964A2-923A-4CE5-9045-A46FAE243992</title>
    <desc>Created with sketchtool.</desc>
    <defs></defs>
    <g id="Symbols" stroke="none" stroke-width="1" fill="none" fill-rule="evenodd">
        <g id="ic/text">
            <g id="Group">
                <g id="text&amp;icon">
                    <path d="M10.56,6.176 L0.96,6.176 L0.96,0.848 L27.6,0.848 L27.6,6.176 L18.048,6.176 L18.048,32 L10.56,32 L10.56,6.176 Z M31.92,0.848 L39.408,0.848 L39.408,13.328 L52.656,13.328 L52.656,0.848 L60.144,0.848 L60.144,32 L52.656,32 L52.656,18.656 L39.408,18.656 L39.408,32 L31.92,32 L31.92,0.848 Z M66.864,0.848 L90.624,0.848 L90.624,6.176 L74.352,6.176 L74.352,13.328 L89.04,13.328 L89.04,18.656 L74.352,18.656 L74.352,26.672 L91.104,26.672 L91.104,32 L66.864,32 L66.864,0.848 Z M107.184,0.848 L130.944,0.848 L130.944,6.176 L114.672,6.176 L114.672,13.328 L129.36,13.328 L129.36,18.656 L114.672,18.656 L114.672,26.672 L131.424,26.672 L131.424,32 L107.184,32 L107.184,0.848 Z M133.104,0.848 L140.688,0.848 L149.04,25.76 L149.232,25.76 L157.584,0.848 L164.976,0.848 L153.456,32 L144.288,32 L133.104,0.848 Z M182.4,32.48 C180.671991,32.48 179.080007,32.3680011 177.624,32.144 C176.167993,31.9199989 174.656008,31.5360027 173.088,30.992 C171.391992,30.4159971 170.064005,29.4800065 169.104,28.184 C168.143995,26.8879935 167.664,25.3120093 167.664,23.456 L167.664,9.824 C167.664,8.28799232 168.007997,6.91200608 168.696,5.696 C169.384003,4.47999392 170.271995,3.52000352 171.36,2.816 C172.320005,2.20799696 173.503993,1.69600208 174.912,1.28 C176.320007,0.86399792 177.631994,0.60800048 178.848,0.512 C179.968006,0.41599952 181.151994,0.368 182.4,0.368 C183.872007,0.368 185.151995,0.42399944 186.24,0.536 C187.328005,0.64800056 188.543993,0.87999824 189.888,1.232 C191.424008,1.68000224 192.687995,2.2239968 193.68,2.864 C194.672005,3.5040032 195.503997,4.39999424 196.176,5.552 C196.880004,6.73600592 197.232,8.15999168 197.232,9.824 L197.232,23.456 C197.232,25.1840086 196.776005,26.6719938 195.864,27.92 C194.951995,29.1680062 193.696008,30.1119968 192.096,30.752 C189.215986,31.9040058 185.984018,32.48 182.4,32.48 Z M182.496,27.152 C183.552005,27.152 184.439996,27.1120004 185.16,27.032 C185.880004,26.9519996 186.623996,26.8000011 187.392,26.576 C188.160004,26.3519989 188.743998,25.9760026 189.144,25.448 C189.544002,24.9199974 189.744,24.256004 189.744,23.456 L189.744,9.776 C189.744,8.30399264 189.152006,7.25600312 187.968,6.632 C186.783994,6.00799688 184.944012,5.696 182.448,5.696 C179.951988,5.696 178.112006,5.99999696 176.928,6.608 C175.743994,7.21600304 175.152,8.27199248 175.152,9.776 L175.152,23.456 C175.152,24.256004 175.359998,24.9199974 175.776,25.448 C176.192002,25.9760026 176.799996,26.3519989 177.6,26.576 C178.368004,26.8000011 179.111996,26.9519996 179.832,27.032 C180.552004,27.1120004 181.439995,27.152 182.496,27.152 Z M203.28,0.848 L210.768,0.848 L210.768,26.672 L226.08,26.672 L226.08,32 L203.28,32 L203.28,0.848 Z M244.512,32.48 C235.519955,32.48 231.024,29.4720301 231.024,23.456 L231.024,0.848 L238.512,0.848 L238.512,23.456 C238.512,24.864007 238.967995,25.8319974 239.88,26.36 C240.792005,26.8880026 242.367989,27.152 244.608,27.152 C246.816011,27.152 248.359996,26.8880026 249.24,26.36 C250.120004,25.8319974 250.56,24.864007 250.56,23.456 L250.56,0.848 L258.048,0.848 L258.048,23.456 C258.048,29.4720301 253.536045,32.48 244.512,32.48 Z M271.872,6.176 L262.272,6.176 L262.272,0.848 L288.912,0.848 L288.912,6.176 L279.36,6.176 L279.36,32 L271.872,32 L271.872,6.176 Z M293.232,0.848 L300.72,0.848 L300.72,32 L293.232,32 L293.232,0.848 Z M321.504,32.48 C319.775991,32.48 318.184007,32.3680011 316.728,32.144 C315.271993,31.9199989 313.760008,31.5360027 312.192,30.992 C310.495992,30.4159971 309.168005,29.4800065 308.208,28.184 C307.247995,26.8879935 306.768,25.3120093 306.768,23.456 L306.768,9.824 C306.768,8.28799232 307.111997,6.91200608 307.8,5.696 C308.488003,4.47999392 309.375995,3.52000352 310.464,2.816 C311.424005,2.20799696 312.607993,1.69600208 314.016,1.28 C315.424007,0.86399792 316.735994,0.60800048 317.952,0.512 C319.072006,0.41599952 320.255994,0.368 321.504,0.368 C322.976007,0.368 324.255995,0.42399944 325.344,0.536 C326.432005,0.64800056 327.647993,0.87999824 328.992,1.232 C330.528008,1.68000224 331.791995,2.2239968 332.784,2.864 C333.776005,3.5040032 334.607997,4.39999424 335.28,5.552 C335.984004,6.73600592 336.336,8.15999168 336.336,9.824 L336.336,23.456 C336.336,25.1840086 335.880005,26.6719938 334.968,27.92 C334.055995,29.1680062 332.800008,30.1119968 331.2,30.752 C328.319986,31.9040058 325.088018,32.48 321.504,32.48 Z M321.6,27.152 C322.656005,27.152 323.543996,27.1120004 324.264,27.032 C324.984004,26.9519996 325.727996,26.8000011 326.496,26.576 C327.264004,26.3519989 327.847998,25.9760026 328.248,25.448 C328.648002,24.9199974 328.848,24.256004 328.848,23.456 L328.848,9.776 C328.848,8.30399264 328.256006,7.25600312 327.072,6.632 C325.887994,6.00799688 324.048012,5.696 321.552,5.696 C319.055988,5.696 317.216006,5.99999696 316.032,6.608 C314.847994,7.21600304 314.256,8.27199248 314.256,9.776 L314.256,23.456 C314.256,24.256004 314.463998,24.9199974 314.88,25.448 C315.296002,25.9760026 315.903996,26.3519989 316.704,26.576 C317.472004,26.8000011 318.215996,26.9519996 318.936,27.032 C319.656004,27.1120004 320.543995,27.152 321.6,27.152 Z M342.384,0.848 L349.968,0.848 L365.04,22.112 L365.04,0.848 L371.712,0.848 L371.712,32 L364.128,32 L349.056,10.4 L349.056,32 L342.384,32 L342.384,0.848 Z M17.424,88.48 C15.6959914,88.48 14.1040073,88.3680011 12.648,88.144 C11.1919927,87.9199989 9.68000784,87.5360027 8.112,86.992 C6.41599152,86.4159971 5.0880048,85.4800065 4.128,84.184 C3.1679952,82.8879935 2.688,81.3120093 2.688,79.456 L2.688,65.824 C2.688,64.2879923 3.03199656,62.9120061 3.72,61.696 C4.40800344,60.4799939 5.29599456,59.5200035 6.384,58.816 C7.3440048,58.207997 8.52799296,57.6960021 9.936,57.28 C11.344007,56.8639979 12.6559939,56.6080005 13.872,56.512 C14.9920056,56.4159995 16.1759938,56.368 17.424,56.368 C18.8960074,56.368 20.1759946,56.4239994 21.264,56.536 C22.3520054,56.6480006 23.5679933,56.8799982 24.912,57.232 C26.4480077,57.6800022 27.711995,58.2239968 28.704,58.864 C29.696005,59.5040032 30.5279966,60.3999942 31.2,61.552 C31.9040035,62.7360059 32.256,64.1599917 32.256,65.824 L32.256,79.456 C32.256,81.1840086 31.8000046,82.6719938 30.888,83.92 C29.9759954,85.1680062 28.720008,86.1119968 27.12,86.752 C24.2399856,87.9040058 21.0080179,88.48 17.424,88.48 Z M17.52,83.152 C18.5760053,83.152 19.4639964,83.1120004 20.184,83.032 C20.9040036,82.9519996 21.6479962,82.8000011 22.416,82.576 C23.1840038,82.3519989 23.767998,81.9760026 24.168,81.448 C24.568002,80.9199974 24.768,80.256004 24.768,79.456 L24.768,65.776 C24.768,64.3039926 24.1760059,63.2560031 22.992,62.632 C21.8079941,62.0079969 19.9680125,61.696 17.472,61.696 C14.9759875,61.696 13.1360059,61.999997 11.952,62.608 C10.7679941,63.216003 10.176,64.2719925 10.176,65.776 L10.176,79.456 C10.176,80.256004 10.3839979,80.9199974 10.8,81.448 C11.2160021,81.9760026 11.823996,82.3519989 12.624,82.576 C13.3920038,82.8000011 14.1359964,82.9519996 14.856,83.032 C15.5760036,83.1120004 16.4639947,83.152 17.52,83.152 Z M38.304,56.848 L62.544,56.848 L62.544,62.176 L45.792,62.176 L45.792,69.808 L60.96,69.808 L60.96,75.136 L45.792,75.136 L45.792,88 L38.304,88 L38.304,56.848 Z M88.704,88.48 C85.7279851,88.48 82.0480219,88.1920029 77.664,87.616 L77.664,81.904 C83.1040272,82.7360042 86.8159901,83.152 88.8,83.152 C92.9600208,83.152 95.04,82.0800107 95.04,79.936 L95.04,77.92 C95.04,76.8959949 94.744003,76.1120027 94.152,75.568 C93.559997,75.0239973 92.4960077,74.752 90.96,74.752 L87.312,74.752 C80.4639658,74.752 77.04,72.0320272 77.04,66.592 L77.04,64.288 C77.04,61.5679864 78.1759886,59.5680064 80.448,58.288 C82.7200114,57.0079936 86.3199754,56.368 91.248,56.368 C93.8080128,56.368 97.0559803,56.5759979 100.992,56.992 L100.992,62.56 C96.1599758,61.9839971 92.8320091,61.696 91.008,61.696 C88.4799874,61.696 86.7840043,61.9039979 85.92,62.32 C84.9919954,62.7680022 84.528,63.4719952 84.528,64.432 L84.528,66.64 C84.528,68.2720082 85.9039862,69.088 88.656,69.088 L92.4,69.088 C95.9520178,69.088 98.527992,69.7439934 100.128,71.056 C101.728008,72.3680066 102.528,74.3679866 102.528,77.056 L102.528,79.12 C102.528,82.8320186 101.200013,85.3439934 98.544,86.656 C97.2639936,87.3280034 95.8480078,87.7999986 94.296,88.072 C92.7439922,88.3440014 90.8800109,88.48 88.704,88.48 Z M107.712,56.848 L120.192,56.848 C123.232015,56.848 125.639991,57.0559979 127.416,57.472 C129.192009,57.8880021 130.487996,58.6159948 131.304,59.656 C132.120004,60.6960052 132.528,62.1439907 132.528,64 L132.528,69.904 C132.528,71.9520102 132.088004,73.5519942 131.208,74.704 C130.327996,75.8560058 128.93601,76.6719976 127.032,77.152 C125.12799,77.6320024 122.560016,77.872 119.328,77.872 L115.2,77.872 L115.2,88 L107.712,88 L107.712,56.848 Z M119.952,72.736 C121.90401,72.736 123.279996,72.5040023 124.08,72.04 C124.880004,71.5759977 125.28,70.7840056 125.28,69.664 L125.28,64.672 C125.28,63.6479949 124.896004,62.9760016 124.128,62.656 C123.391996,62.3359984 121.968011,62.176 119.856,62.176 L115.2,62.176 L115.2,72.736 L119.952,72.736 Z M137.808,56.848 L161.568,56.848 L161.568,62.176 L145.296,62.176 L145.296,69.328 L159.984,69.328 L159.984,74.656 L145.296,74.656 L145.296,82.672 L162.048,82.672 L162.048,88 L137.808,88 L137.808,56.848 Z M180.864,88.48 C179.455993,88.48 178.200006,88.4160006 177.096,88.288 C175.991994,88.1599994 174.784007,87.9200018 173.472,87.568 C171.999993,87.1839981 170.784005,86.6800031 169.824,86.056 C168.863995,85.4319969 168.064003,84.5600056 167.424,83.44 C166.751997,82.3199944 166.416,80.9920077 166.416,79.456 L166.416,65.776 C166.416,59.5039686 171.231952,56.368 180.864,56.368 C183.328012,56.368 186.623979,56.7199965 190.752,57.424 L190.752,63.04 C187.039981,62.1439955 183.776014,61.696 180.96,61.696 C179.775994,61.696 178.856003,61.7279997 178.2,61.792 C177.543997,61.8560003 176.864004,62.0159987 176.16,62.272 C174.655992,62.7840026 173.904,63.9199912 173.904,65.68 L173.904,78.928 C173.904,81.7440141 176.479974,83.152 181.632,83.152 C183.840011,83.152 186.94398,82.6880046 190.944,81.76 L190.944,87.424 C187.519983,88.1280035 184.160016,88.48 180.864,88.48 Z M195.744,56.848 L203.232,56.848 L203.232,88 L195.744,88 L195.744,56.848 Z M209.952,56.848 L233.712,56.848 L233.712,62.176 L217.44,62.176 L217.44,69.328 L232.128,69.328 L232.128,74.656 L217.44,74.656 L217.44,82.672 L234.192,82.672 L234.192,88 L209.952,88 L209.952,56.848 Z M249.312,88.48 C246.335985,88.48 242.656022,88.1920029 238.272,87.616 L238.272,81.904 C243.712027,82.7360042 247.42399,83.152 249.408,83.152 C253.568021,83.152 255.648,82.0800107 255.648,79.936 L255.648,77.92 C255.648,76.8959949 255.352003,76.1120027 254.76,75.568 C254.167997,75.0239973 253.104008,74.752 251.568,74.752 L247.92,74.752 C241.071966,74.752 237.648,72.0320272 237.648,66.592 L237.648,64.288 C237.648,61.5679864 238.783989,59.5680064 241.056,58.288 C243.328011,57.0079936 246.927975,56.368 251.856,56.368 C254.416013,56.368 257.66398,56.5759979 261.6,56.992 L261.6,62.56 C256.767976,61.9839971 253.440009,61.696 251.616,61.696 C249.087987,61.696 247.392004,61.9039979 246.528,62.32 C245.599995,62.7680022 245.136,63.4719952 245.136,64.432 L245.136,66.64 C245.136,68.2720082 246.511986,69.088 249.264,69.088 L253.008,69.088 C256.560018,69.088 259.135992,69.7439934 260.736,71.056 C262.336008,72.3680066 263.136,74.3679866 263.136,77.056 L263.136,79.12 C263.136,82.8320186 261.808013,85.3439934 259.152,86.656 C257.871994,87.3280034 256.456008,87.7999986 254.904,88.072 C253.351992,88.3440014 251.488011,88.48 249.312,88.48 Z" id="The-evolution-of-spe" fill="#400CEC"></path>
                    <path d="M17.56,10.176 L7.96,10.176 L7.96,4.848 L34.6,4.848 L34.6,10.176 L25.048,10.176 L25.048,36 L17.56,36 L17.56,10.176 Z M38.92,4.848 L46.408,4.848 L46.408,17.328 L59.656,17.328 L59.656,4.848 L67.144,4.848 L67.144,36 L59.656,36 L59.656,22.656 L46.408,22.656 L46.408,36 L38.92,36 L38.92,4.848 Z M73.864,4.848 L97.624,4.848 L97.624,10.176 L81.352,10.176 L81.352,17.328 L96.04,17.328 L96.04,22.656 L81.352,22.656 L81.352,30.672 L98.104,30.672 L98.104,36 L73.864,36 L73.864,4.848 Z M114.184,4.848 L137.944,4.848 L137.944,10.176 L121.672,10.176 L121.672,17.328 L136.36,17.328 L136.36,22.656 L121.672,22.656 L121.672,30.672 L138.424,30.672 L138.424,36 L114.184,36 L114.184,4.848 Z M140.104,4.848 L147.688,4.848 L156.04,29.76 L156.232,29.76 L164.584,4.848 L171.976,4.848 L160.456,36 L151.288,36 L140.104,4.848 Z M189.4,36.48 C187.671991,36.48 186.080007,36.3680011 184.624,36.144 C183.167993,35.9199989 181.656008,35.5360027 180.088,34.992 C178.391992,34.4159971 177.064005,33.4800065 176.104,32.184 C175.143995,30.8879935 174.664,29.3120093 174.664,27.456 L174.664,13.824 C174.664,12.2879923 175.007997,10.9120061 175.696,9.696 C176.384003,8.47999392 177.271995,7.52000352 178.36,6.816 C179.320005,6.20799696 180.503993,5.69600208 181.912,5.28 C183.320007,4.86399792 184.631994,4.60800048 185.848,4.512 C186.968006,4.41599952 188.151994,4.368 189.4,4.368 C190.872007,4.368 192.151995,4.42399944 193.24,4.536 C194.328005,4.64800056 195.543993,4.87999824 196.888,5.232 C198.424008,5.68000224 199.687995,6.2239968 200.68,6.864 C201.672005,7.5040032 202.503997,8.39999424 203.176,9.552 C203.880004,10.7360059 204.232,12.1599917 204.232,13.824 L204.232,27.456 C204.232,29.1840086 203.776005,30.6719938 202.864,31.92 C201.951995,33.1680062 200.696008,34.1119968 199.096,34.752 C196.215986,35.9040058 192.984018,36.48 189.4,36.48 Z M189.496,31.152 C190.552005,31.152 191.439996,31.1120004 192.16,31.032 C192.880004,30.9519996 193.623996,30.8000011 194.392,30.576 C195.160004,30.3519989 195.743998,29.9760026 196.144,29.448 C196.544002,28.9199974 196.744,28.256004 196.744,27.456 L196.744,13.776 C196.744,12.3039926 196.152006,11.2560031 194.968,10.632 C193.783994,10.0079969 191.944012,9.696 189.448,9.696 C186.951988,9.696 185.112006,9.99999696 183.928,10.608 C182.743994,11.216003 182.152,12.2719925 182.152,13.776 L182.152,27.456 C182.152,28.256004 182.359998,28.9199974 182.776,29.448 C183.192002,29.9760026 183.799996,30.3519989 184.6,30.576 C185.368004,30.8000011 186.111996,30.9519996 186.832,31.032 C187.552004,31.1120004 188.439995,31.152 189.496,31.152 Z M210.28,4.848 L217.768,4.848 L217.768,30.672 L233.08,30.672 L233.08,36 L210.28,36 L210.28,4.848 Z M251.512,36.48 C242.519955,36.48 238.024,33.4720301 238.024,27.456 L238.024,4.848 L245.512,4.848 L245.512,27.456 C245.512,28.864007 245.967995,29.8319974 246.88,30.36 C247.792005,30.8880026 249.367989,31.152 251.608,31.152 C253.816011,31.152 255.359996,30.8880026 256.24,30.36 C257.120004,29.8319974 257.56,28.864007 257.56,27.456 L257.56,4.848 L265.048,4.848 L265.048,27.456 C265.048,33.4720301 260.536045,36.48 251.512,36.48 Z M278.872,10.176 L269.272,10.176 L269.272,4.848 L295.912,4.848 L295.912,10.176 L286.36,10.176 L286.36,36 L278.872,36 L278.872,10.176 Z M300.232,4.848 L307.72,4.848 L307.72,36 L300.232,36 L300.232,4.848 Z M328.504,36.48 C326.775991,36.48 325.184007,36.3680011 323.728,36.144 C322.271993,35.9199989 320.760008,35.5360027 319.192,34.992 C317.495992,34.4159971 316.168005,33.4800065 315.208,32.184 C314.247995,30.8879935 313.768,29.3120093 313.768,27.456 L313.768,13.824 C313.768,12.2879923 314.111997,10.9120061 314.8,9.696 C315.488003,8.47999392 316.375995,7.52000352 317.464,6.816 C318.424005,6.20799696 319.607993,5.69600208 321.016,5.28 C322.424007,4.86399792 323.735994,4.60800048 324.952,4.512 C326.072006,4.41599952 327.255994,4.368 328.504,4.368 C329.976007,4.368 331.255995,4.42399944 332.344,4.536 C333.432005,4.64800056 334.647993,4.87999824 335.992,5.232 C337.528008,5.68000224 338.791995,6.2239968 339.784,6.864 C340.776005,7.5040032 341.607997,8.39999424 342.28,9.552 C342.984004,10.7360059 343.336,12.1599917 343.336,13.824 L343.336,27.456 C343.336,29.1840086 342.880005,30.6719938 341.968,31.92 C341.055995,33.1680062 339.800008,34.1119968 338.2,34.752 C335.319986,35.9040058 332.088018,36.48 328.504,36.48 Z M328.6,31.152 C329.656005,31.152 330.543996,31.1120004 331.264,31.032 C331.984004,30.9519996 332.727996,30.8000011 333.496,30.576 C334.264004,30.3519989 334.847998,29.9760026 335.248,29.448 C335.648002,28.9199974 335.848,28.256004 335.848,27.456 L335.848,13.776 C335.848,12.3039926 335.256006,11.2560031 334.072,10.632 C332.887994,10.0079969 331.048012,9.696 328.552,9.696 C326.055988,9.696 324.216006,9.99999696 323.032,10.608 C321.847994,11.216003 321.256,12.2719925 321.256,13.776 L321.256,27.456 C321.256,28.256004 321.463998,28.9199974 321.88,29.448 C322.296002,29.9760026 322.903996,30.3519989 323.704,30.576 C324.472004,30.8000011 325.215996,30.9519996 325.936,31.032 C326.656004,31.1120004 327.543995,31.152 328.6,31.152 Z M349.384,4.848 L356.968,4.848 L372.04,26.112 L372.04,4.848 L378.712,4.848 L378.712,36 L371.128,36 L356.056,14.4 L356.056,36 L349.384,36 L349.384,4.848 Z M24.424,92.48 C22.6959914,92.48 21.1040073,92.3680011 19.648,92.144 C18.1919927,91.9199989 16.6800078,91.5360027 15.112,90.992 C13.4159915,90.4159971 12.0880048,89.4800065 11.128,88.184 C10.1679952,86.8879935 9.688,85.3120093 9.688,83.456 L9.688,69.824 C9.688,68.2879923 10.0319966,66.9120061 10.72,65.696 C11.4080034,64.4799939 12.2959946,63.5200035 13.384,62.816 C14.3440048,62.207997 15.527993,61.6960021 16.936,61.28 C18.344007,60.8639979 19.6559939,60.6080005 20.872,60.512 C21.9920056,60.4159995 23.1759938,60.368 24.424,60.368 C25.8960074,60.368 27.1759946,60.4239994 28.264,60.536 C29.3520054,60.6480006 30.5679933,60.8799982 31.912,61.232 C33.4480077,61.6800022 34.711995,62.2239968 35.704,62.864 C36.696005,63.5040032 37.5279966,64.3999942 38.2,65.552 C38.9040035,66.7360059 39.256,68.1599917 39.256,69.824 L39.256,83.456 C39.256,85.1840086 38.8000046,86.6719938 37.888,87.92 C36.9759954,89.1680062 35.720008,90.1119968 34.12,90.752 C31.2399856,91.9040058 28.0080179,92.48 24.424,92.48 Z M24.52,87.152 C25.5760053,87.152 26.4639964,87.1120004 27.184,87.032 C27.9040036,86.9519996 28.6479962,86.8000011 29.416,86.576 C30.1840038,86.3519989 30.767998,85.9760026 31.168,85.448 C31.568002,84.9199974 31.768,84.256004 31.768,83.456 L31.768,69.776 C31.768,68.3039926 31.1760059,67.2560031 29.992,66.632 C28.8079941,66.0079969 26.9680125,65.696 24.472,65.696 C21.9759875,65.696 20.1360059,65.999997 18.952,66.608 C17.7679941,67.216003 17.176,68.2719925 17.176,69.776 L17.176,83.456 C17.176,84.256004 17.3839979,84.9199974 17.8,85.448 C18.2160021,85.9760026 18.823996,86.3519989 19.624,86.576 C20.3920038,86.8000011 21.1359964,86.9519996 21.856,87.032 C22.5760036,87.1120004 23.4639947,87.152 24.52,87.152 Z M45.304,60.848 L69.544,60.848 L69.544,66.176 L52.792,66.176 L52.792,73.808 L67.96,73.808 L67.96,79.136 L52.792,79.136 L52.792,92 L45.304,92 L45.304,60.848 Z M95.704,92.48 C92.7279851,92.48 89.0480219,92.1920029 84.664,91.616 L84.664,85.904 C90.1040272,86.7360042 93.8159901,87.152 95.8,87.152 C99.9600208,87.152 102.04,86.0800107 102.04,83.936 L102.04,81.92 C102.04,80.8959949 101.744003,80.1120027 101.152,79.568 C100.559997,79.0239973 99.4960077,78.752 97.96,78.752 L94.312,78.752 C87.4639658,78.752 84.04,76.0320272 84.04,70.592 L84.04,68.288 C84.04,65.5679864 85.1759886,63.5680064 87.448,62.288 C89.7200114,61.0079936 93.3199754,60.368 98.248,60.368 C100.808013,60.368 104.05598,60.5759979 107.992,60.992 L107.992,66.56 C103.159976,65.9839971 99.8320091,65.696 98.008,65.696 C95.4799874,65.696 93.7840043,65.9039979 92.92,66.32 C91.9919954,66.7680022 91.528,67.4719952 91.528,68.432 L91.528,70.64 C91.528,72.2720082 92.9039862,73.088 95.656,73.088 L99.4,73.088 C102.952018,73.088 105.527992,73.7439934 107.128,75.056 C108.728008,76.3680066 109.528,78.3679866 109.528,81.056 L109.528,83.12 C109.528,86.8320186 108.200013,89.3439934 105.544,90.656 C104.263994,91.3280034 102.848008,91.7999986 101.296,92.072 C99.7439922,92.3440014 97.8800109,92.48 95.704,92.48 Z M114.712,60.848 L127.192,60.848 C130.232015,60.848 132.639991,61.0559979 134.416,61.472 C136.192009,61.8880021 137.487996,62.6159948 138.304,63.656 C139.120004,64.6960052 139.528,66.1439907 139.528,68 L139.528,73.904 C139.528,75.9520102 139.088004,77.5519942 138.208,78.704 C137.327996,79.8560058 135.93601,80.6719976 134.032,81.152 C132.12799,81.6320024 129.560016,81.872 126.328,81.872 L122.2,81.872 L122.2,92 L114.712,92 L114.712,60.848 Z M126.952,76.736 C128.90401,76.736 130.279996,76.5040023 131.08,76.04 C131.880004,75.5759977 132.28,74.7840056 132.28,73.664 L132.28,68.672 C132.28,67.6479949 131.896004,66.9760016 131.128,66.656 C130.391996,66.3359984 128.968011,66.176 126.856,66.176 L122.2,66.176 L122.2,76.736 L126.952,76.736 Z M144.808,60.848 L168.568,60.848 L168.568,66.176 L152.296,66.176 L152.296,73.328 L166.984,73.328 L166.984,78.656 L152.296,78.656 L152.296,86.672 L169.048,86.672 L169.048,92 L144.808,92 L144.808,60.848 Z M187.864,92.48 C186.455993,92.48 185.200006,92.4160006 184.096,92.288 C182.991994,92.1599994 181.784007,91.9200018 180.472,91.568 C178.999993,91.1839981 177.784005,90.6800031 176.824,90.056 C175.863995,89.4319969 175.064003,88.5600056 174.424,87.44 C173.751997,86.3199944 173.416,84.9920077 173.416,83.456 L173.416,69.776 C173.416,63.5039686 178.231952,60.368 187.864,60.368 C190.328012,60.368 193.623979,60.7199965 197.752,61.424 L197.752,67.04 C194.039981,66.1439955 190.776014,65.696 187.96,65.696 C186.775994,65.696 185.856003,65.7279997 185.2,65.792 C184.543997,65.8560003 183.864004,66.0159987 183.16,66.272 C181.655992,66.7840026 180.904,67.9199912 180.904,69.68 L180.904,82.928 C180.904,85.7440141 183.479974,87.152 188.632,87.152 C190.840011,87.152 193.94398,86.6880046 197.944,85.76 L197.944,91.424 C194.519983,92.1280035 191.160016,92.48 187.864,92.48 Z M202.744,60.848 L210.232,60.848 L210.232,92 L202.744,92 L202.744,60.848 Z M216.952,60.848 L240.712,60.848 L240.712,66.176 L224.44,66.176 L224.44,73.328 L239.128,73.328 L239.128,78.656 L224.44,78.656 L224.44,86.672 L241.192,86.672 L241.192,92 L216.952,92 L216.952,60.848 Z M256.312,92.48 C253.335985,92.48 249.656022,92.1920029 245.272,91.616 L245.272,85.904 C250.712027,86.7360042 254.42399,87.152 256.408,87.152 C260.568021,87.152 262.648,86.0800107 262.648,83.936 L262.648,81.92 C262.648,80.8959949 262.352003,80.1120027 261.76,79.568 C261.167997,79.0239973 260.104008,78.752 258.568,78.752 L254.92,78.752 C248.071966,78.752 244.648,76.0320272 244.648,70.592 L244.648,68.288 C244.648,65.5679864 245.783989,63.5680064 248.056,62.288 C250.328011,61.0079936 253.927975,60.368 258.856,60.368 C261.416013,60.368 264.66398,60.5759979 268.6,60.992 L268.6,66.56 C263.767976,65.9839971 260.440009,65.696 258.616,65.696 C256.087987,65.696 254.392004,65.9039979 253.528,66.32 C252.599995,66.7680022 252.136,67.4719952 252.136,68.432 L252.136,70.64 C252.136,72.2720082 253.511986,73.088 256.264,73.088 L260.008,73.088 C263.560018,73.088 266.135992,73.7439934 267.736,75.056 C269.336008,76.3680066 270.136,78.3679866 270.136,81.056 L270.136,83.12 C270.136,86.8320186 268.808013,89.3439934 266.152,90.656 C264.871994,91.3280034 263.456008,91.7999986 261.904,92.072 C260.351992,92.3440014 258.488011,92.48 256.312,92.48 Z" id="The-evolution-of-spe" stroke="#2BD312"></path>
                </g>
            </g>
        </g>
    </g>
</svg>