<?xml version="1.0" encoding="UTF-8"?>
<svg width="610px" height="655px" viewBox="0 0 610 655" version="1.1" xmlns="http://www.w3.org/2000/svg" xmlns:xlink="http://www.w3.org/1999/xlink">
    <!-- Generator: sketchtool 51.3 (57544) - http://www.bohemiancoding.com/sketch -->
    <title>DDC01CCD-A7E1-4BF2-9185-B3FDCFE6B7A2</title>
    <desc>Created with sketchtool.</desc>
    <defs>
        <linearGradient x1="60.3182214%" y1="34.9180449%" x2="40.5790597%" y2="-12.1769749%" id="linearGradient-1">
            <stop stop-color="#BAB9B9" offset="0%"></stop>
            <stop stop-color="#48FF1A" offset="100%"></stop>
        </linearGradient>
        <linearGradient x1="50%" y1="0%" x2="50%" y2="100%" id="linearGradient-2">
            <stop stop-color="#61FF25" offset="1.68442919%"></stop>
            <stop stop-color="#32FF10" offset="100%"></stop>
        </linearGradient>
        <path d="M0.608165194,35.2002598 L98.986542,116.723861 C83.3536338,103.246505 69.0503193,80.2435746 78.7739619,65.1161072 C88.4976046,49.9886397 94.2014418,50.4373473 98.8815351,20.4989993 C100.138993,6.01660183 89.0292589,0.426955091 75.9506446,0.429834868 C65.7990987,0.429834868 54.4609743,3.79629393 46.8085936,8.9856517 C28.537386,21.3773312 41.928396,48.6776151 0.608165194,35.2002598 Z" id="path-3"></path>
        <linearGradient x1="92.5079893%" y1="1.97220168%" x2="50%" y2="59.8729468%" id="linearGradient-5">
            <stop stop-color="#F7E170" offset="0%"></stop>
            <stop stop-color="#A1A1A1" stop-opacity="0" offset="100%"></stop>
        </linearGradient>
        <linearGradient x1="50%" y1="0%" x2="50%" y2="100%" id="linearGradient-6">
            <stop stop-color="#EEEEEE" offset="0%"></stop>
            <stop stop-color="#D8D8D8" offset="100%"></stop>
        </linearGradient>
        <linearGradient x1="50%" y1="0%" x2="50%" y2="100%" id="linearGradient-7">
            <stop stop-color="#FCF2A9" offset="0%"></stop>
            <stop stop-color="#F7E170" offset="100%"></stop>
        </linearGradient>
    </defs>
    <g id="Symbols" stroke="none" stroke-width="1" fill="none" fill-rule="evenodd">
        <g id="il/round" transform="translate(-20.000000, -70.000000)">
            <g id="illustaration">
                <g id="Group-2" transform="translate(298.921760, 369.747675) rotate(30.000000) translate(-298.921760, -369.747675) translate(150.921760, 28.247675)">
                    <path d="M27.3919,242.429038 C27.3919,242.429038 -18.8881385,207.472485 8.86393355,158.514874 C36.6160056,109.557263 46.0090147,120.395292 57.9637534,122.168369 C69.9184922,123.941446 99.8376168,121.735241 108.557745,91.0826657 C117.275311,60.4358538 132.530412,37.1409337 172.852038,50.6256462 C213.173664,64.1132407 199.563194,34.5068181 217.533728,22.3651011 C239.134233,7.7708322 270.930422,10.1686268 268.752952,35.9160988 C266.57292,61.6606888 259.041434,63.6867099 253.551648,74.352861 C248.451244,84.2639374 253.917975,92.7225036 258.595693,99.4807106 C268.983508,114.489982 273.113016,129.090015 276.92487,158.514874 L142.101034,175.034295 L27.3919,242.429038 Z" id="Fill-5" fill="#BAB9B9"></path>
                    <path d="M58.0510142,174.949887 C7.1140813,196.463853 -9.15743893,190.985769 9.2364535,158.515634 C36.8272921,109.810432 46.1657298,120.592583 58.0510142,122.356519 C65.5271464,123.466078 73.7565685,123.466078 87.764225,117.919445 C91.0832761,116.605196 90.3336016,137.74623 91.296028,143.041442 C91.725568,145.404745 91.9565201,150.562809 91.9888841,158.515634 L58.0510142,174.949887 Z" id="Fill-5" fill="url(#linearGradient-1)"></path>
                    <path d="M34.5833651,227.617114 C34.5833651,227.617114 111.915585,145.944769 237.16951,149.601141 C362.425995,153.260378 155.482168,189.826963 113.003726,209.332389 C70.5252836,228.837815 4.08726934,261.748028 34.5833651,227.617114" id="Fill-7" fill="#555454"></path>
                    <path d="M67.483889,116.009098 C88.6474545,105.202974 67.1369963,94.2925617 62.9485781,88.2895567 C59.0147749,82.6487282 35.6586719,64.5084901 43.9158392,106.495304 C44.891015,111.443149 46.3203235,126.815222 67.483889,116.009098 Z" id="Fill-37" fill="url(#linearGradient-2)" transform="translate(59.409488, 99.654624) rotate(38.000000) translate(-59.409488, -99.654624) "></path>
                    <path d="M46.6010097,68.9366349 C52.8970746,70.1643861 56.3888859,50.3884112 46.6010097,55.4485823 C43.9612789,56.8140253 40.3049447,67.7117522 46.6010097,68.9366349 Z" id="Fill-39" fill="#56FF20" transform="translate(47.910877, 61.805031) rotate(-48.000000) translate(-47.910877, -61.805031) "></path>
                    <path d="M262.677961,683.192893 C268.974026,684.420645 272.465837,664.64467 262.677961,669.704841 C260.03823,671.070284 256.381896,681.968011 262.677961,683.192893 Z" id="Fill-39" fill="#56FF20" transform="translate(263.987829, 676.061290) rotate(-76.000000) translate(-263.987829, -676.061290) "></path>
                    <path d="M279.956702,13.4533759 C282.801826,15.7427413 301.972411,20.9776784 292.545326,6.57939448 C283.118241,-7.81594682 268.986766,4.61960354 279.956702,13.4533759" id="Fill-41" fill="#F7E170"></path>
                    <g id="Group-46" transform="translate(221.983354, 72.895977) rotate(-4.000000) translate(-221.983354, -72.895977) translate(172.483354, 14.395977)">
                        <mask id="mask-4" fill="white">
                            <use xlink:href="#path-3"></use>
                        </mask>
                        <g id="Clip-45"></g>
                        <path d="M0.608165194,34.2420422 L98.986542,115.765643 C83.3536338,102.288288 69.1691493,78.3318079 78.8927919,63.2043404 C88.6164346,48.076873 97.0070788,49.6975028 98.8221201,20.4966651 C100.079578,6.01426766 88.1201698,0.357779045 75.0415555,0.360658821 C64.8900096,0.360658821 54.4015593,3.79395976 46.7491786,8.98331753 C28.477971,21.374997 41.928396,47.7193976 0.608165194,34.2420422 Z" id="Fill-44" fill="url(#linearGradient-5)" mask="url(#mask-4)"></path>
                    </g>
                </g>
                <ellipse id="Oval-4" fill="#55FF20" cx="195.5" cy="596.5" rx="49.5" ry="103.5"></ellipse>
                <circle id="Oval-6" fill="url(#linearGradient-6)" cx="319" cy="416" r="299"></circle>
                <g id="Group-13" transform="translate(158.000000, 238.806107)" fill="url(#linearGradient-7)">
                    <path d="M449.8733,188.703483 C461.7293,188.703483 471.3443,185.367548 471.4223,181.241205 C471.4223,181.187109 471.4133,181.139024 471.4133,181.090938 C471.2573,176.988639 461.6813,173.676745 449.8733,173.676745 C438.0683,173.676745 428.4923,176.988639 428.3363,181.090938 C428.3333,181.139024 428.3273,181.187109 428.3273,181.241205 C428.4053,185.367548 438.0203,188.703483 449.8733,188.703483" id="Fill-33"></path>
                </g>
                <path d="M56.6975,634.079798 C56.6975,634.103841 56.7065,634.127883 56.7095,634.148921 C56.7095,634.076793 56.7185,634.004664 56.7185,633.926525 C56.7185,633.980621 56.6975,634.025702 56.6975,634.079798" id="Fill-21" fill="#9F714B"></path>
                <path d="M120.7406,634.079798 C120.7406,634.025702 120.7196,633.980621 120.7196,633.926525 C120.7196,634.004664 120.7286,634.076793 120.7286,634.148921 C120.7286,634.127883 120.7406,634.103841 120.7406,634.079798" id="Fill-23" fill="#9F714B"></path>
                <path d="M566.3225,489.996221 C566.3225,490.014253 566.3285,490.02928 566.3285,490.047312 C566.3285,489.993216 566.3345,489.94513 566.3375,489.897045 C566.3345,489.930104 566.3225,489.960157 566.3225,489.996221" id="Fill-29" fill="#9F714B"></path>
                <path d="M609.4271,489.996221 C609.4271,489.960157 609.4151,489.930104 609.4121,489.897045 C609.4121,489.94513 609.4211,489.993216 609.4211,490.047312 C609.4211,490.02928 609.4271,490.014253 609.4271,489.996221" id="Fill-31" fill="#9F714B"></path>
                <path d="M120.7192,643.21103 C138.2602,643.21103 152.4862,648.130784 152.7202,654.222624 C152.4862,636.710463 138.2602,622.579319 120.7192,622.579319 C103.1782,622.579319 88.9522,636.710463 88.7182,654.222624 C88.9522,648.130784 103.1782,643.21103 120.7192,643.21103" id="Fill-19" fill="#A1A1A1"></path>
                <path d="M152.7292,653.447123 C152.7292,653.371989 152.7202,653.299861 152.7202,653.221722 C152.4862,647.129882 138.2602,642.210128 120.7192,642.210128 C103.1782,642.210128 88.9522,647.129882 88.7182,653.221722 C88.7182,653.299861 88.7092,653.371989 88.7092,653.447123 C88.8202,659.578032 103.1062,664.536856 120.7192,664.536856 C138.3322,664.536856 152.6182,659.578032 152.7292,653.447123 Z" id="Fill-25" fill="#BDBDBD"></path>
                <path d="M152.7292,654.447123 C152.7292,654.371989 152.7202,654.299861 152.7202,654.221722 C152.4862,648.129882 138.2602,643.210128 120.7192,643.210128 C103.1782,643.210128 88.9522,648.129882 88.7182,654.221722 C88.7182,654.299861 88.7092,654.371989 88.7092,654.447123 C88.8202,660.578032 103.1062,665.536856 120.7192,665.536856 C138.3322,665.536856 152.6182,660.578032 152.7292,654.447123 Z" id="Fill-25" fill="#555454"></path>
                <path d="M152.7289,664.618121 C152.6179,658.487212 138.3319,653.531394 120.7189,653.531394 C103.1059,653.531394 88.8199,658.487212 88.7089,664.618121 C88.7059,664.645169 88.6969,664.669212 88.6969,664.690249 C88.6969,664.74134 88.7179,664.792431 88.7179,664.840517 C88.9519,682.355682 103.1779,696.486827 120.7189,696.486827 C138.2599,696.486827 152.4859,682.355682 152.7199,664.840517 C152.7199,664.792431 152.7409,664.74134 152.7409,664.690249 C152.7409,664.669212 152.7289,664.645169 152.7289,664.618121" id="Fill-35" fill="#BDBDBD"></path>
                <path d="M152.7289,666.618121 C152.6179,660.487212 138.3319,655.531394 120.7189,655.531394 C103.1059,655.531394 88.8199,660.487212 88.7089,666.618121 C88.7059,666.645169 88.6969,666.669212 88.6969,666.690249 C88.6969,666.74134 88.7179,666.792431 88.7179,666.840517 C88.9519,684.355682 103.1779,698.486827 120.7189,698.486827 C138.2599,698.486827 152.4859,684.355682 152.7199,666.840517 C152.7199,666.792431 152.7409,666.74134 152.7409,666.690249 C152.7409,666.669212 152.7289,666.645169 152.7289,666.618121" id="Fill-35" fill="#A1A1A1"></path>
                <path d="M607.8733,412.77835 C619.6813,412.77835 629.2573,416.090243 629.4133,420.192542 C629.2573,408.402564 619.6813,398.890639 607.8733,398.890639 C596.0683,398.890639 586.4923,408.402564 586.3363,420.192542 C586.4923,416.090243 596.0683,412.77835 607.8733,412.77835" id="Fill-27" fill="#A1A1A1"></path>
                <path d="M607.8733,427.805088 C619.7293,427.805088 629.3443,424.469152 629.4223,420.34281 C629.4223,420.288713 629.4133,420.240628 629.4133,420.192542 C629.2573,416.090243 619.6813,412.77835 607.8733,412.77835 C596.0683,412.77835 586.4923,416.090243 586.3363,420.192542 C586.3333,420.240628 586.3273,420.288713 586.3273,420.34281 C586.4053,424.469152 596.0203,427.805088 607.8733,427.805088" id="Fill-33" fill="#BDBDBD"></path>
                <path d="M629.4223,421.34281 C629.4223,421.288713 629.4133,421.240628 629.4133,421.192542 C629.2573,417.090243 619.6813,413.77835 607.8733,413.77835 C596.0683,413.77835 586.4923,417.090243 586.3363,421.192542 C586.3333,421.240628 586.3273,421.288713 586.3273,421.34281 C586.4053,425.469152 596.0203,428.805088 607.8733,428.805088 C619.7293,428.805088 629.3443,425.469152 629.4223,421.34281 Z" id="Fill-33" fill="#555454"></path>
                <circle id="Oval-5" stroke="#C2C2C2" stroke-width="0.5" fill="#B8B8B8" cx="527.5" cy="317.5" r="4.5"></circle>
                <circle id="Oval-5" stroke="#C2C2C2" stroke-width="0.5" fill="#B8B8B8" cx="108.5" cy="492.5" r="4.5"></circle>
            </g>
        </g>
    </g>
</svg>