<?xml version="1.0" encoding="UTF-8"?>
<svg width="879px" height="602px" viewBox="0 0 879 602" version="1.1" xmlns="http://www.w3.org/2000/svg" xmlns:xlink="http://www.w3.org/1999/xlink">
    <!-- Generator: sketchtool 51.3 (57544) - http://www.bohemiancoding.com/sketch -->
    <title>611D2088-3448-438E-AC5E-C17F1C38F43A</title>
    <desc>Created with sketchtool.</desc>
    <defs>
        <linearGradient x1="60.3182214%" y1="34.9180449%" x2="40.5790597%" y2="-12.1769749%" id="linearGradient-1">
            <stop stop-color="#BAB9B9" offset="0%"></stop>
            <stop stop-color="#48FF1A" offset="100%"></stop>
        </linearGradient>
        <linearGradient x1="50%" y1="0%" x2="50%" y2="100%" id="linearGradient-2">
            <stop stop-color="#FCF2A9" offset="0%"></stop>
            <stop stop-color="#F7E170" offset="100%"></stop>
        </linearGradient>
        <path d="M22.815,9.34362567 C-39.762,19.5437754 44.259,28.1841497 114.465,44.9720214 C159.483,55.7371765 198.825,85.778631 190.218,69.3003102 C179.655,49.0803316 198.984,34.8229626 198.984,34.8229626 C221.376,16.445262 173.232,2.61465241 106.128,2.61164706 C80.196,2.61164706 51.438,4.67632086 22.815,9.34362567" id="path-3"></path>
        <linearGradient x1="97.3361827%" y1="25.7224165%" x2="69.6737382%" y2="68.9089862%" id="linearGradient-5">
            <stop stop-color="#400CEC" offset="0%"></stop>
            <stop stop-color="#7557D6" offset="12.0167991%"></stop>
            <stop stop-color="#8B76CD" offset="30.8458273%"></stop>
            <stop stop-color="#B1ACBD" offset="77.8608201%"></stop>
            <stop stop-color="#BAB9B9" offset="100%"></stop>
        </linearGradient>
        <linearGradient x1="50%" y1="0%" x2="50%" y2="100%" id="linearGradient-6">
            <stop stop-color="#61FF25" offset="1.68442919%"></stop>
            <stop stop-color="#32FF10" offset="100%"></stop>
        </linearGradient>
        <path d="M0.714019325,36.7351444 L116.215635,121.813529 C97.8617422,107.748503 81.0688657,83.7425439 92.4849559,67.955453 C103.901046,52.1683621 110.597664,52.6366353 116.092351,21.3928449 C117.568676,6.27895187 104.525238,0.445572193 89.1702264,0.44857754 C77.2517542,0.44857754 63.9401737,3.96182888 54.9558586,9.37746524 C33.5044579,22.3094759 49.2262388,50.8001711 0.714019325,36.7351444 Z" id="path-7"></path>
        <linearGradient x1="92.5079893%" y1="1.97220168%" x2="50%" y2="59.8729468%" id="linearGradient-9">
            <stop stop-color="#F7E170" offset="0%"></stop>
            <stop stop-color="#A1A1A1" stop-opacity="0" offset="100%"></stop>
        </linearGradient>
        <circle id="path-10" cx="558" cy="488" r="35"></circle>
        <filter x="-17.9%" y="-19.3%" width="124.3%" height="125.7%" filterUnits="objectBoundingBox" id="filter-11">
            <feOffset dx="-5" dy="-6" in="SourceAlpha" result="shadowOffsetOuter1"></feOffset>
            <feGaussianBlur stdDeviation="1.5" in="shadowOffsetOuter1" result="shadowBlurOuter1"></feGaussianBlur>
            <feColorMatrix values="0 0 0 0 0   0 0 0 0 0   0 0 0 0 0  0 0 0 0.0738507699 0" type="matrix" in="shadowBlurOuter1"></feColorMatrix>
        </filter>
    </defs>
    <g id="Symbols" stroke="none" stroke-width="1" fill="none" fill-rule="evenodd">
        <g id="il/illustaration" transform="translate(0.000000, -2.000000)">
            <g id="illustaration" transform="translate(0.000000, 4.000000)">
                <polyline id="Path-7" stroke="#979797" stroke-width="0.5" points="702 154.5 747.5 92 855 92"></polyline>
                <polyline id="Path-7" stroke="#979797" stroke-width="0.5" transform="translate(103.500000, 123.250000) scale(-1, 1) translate(-103.500000, -123.250000) " points="27 154.5 72.5 92 180 92"></polyline>
                <polyline id="Path-8" stroke="#979797" stroke-width="0.5" points="736 296.5 780 241 879 241"></polyline>
                <polyline id="Path-8" stroke="#979797" stroke-width="0.5" transform="translate(71.500000, 268.750000) scale(-1, 1) translate(-71.500000, -268.750000) " points="0 296.5 44 241 143 241"></polyline>
                <polygon id="Fill-1" fill="#FFFFFF" points="201.448 387.993807 228.523 387.993807 228.523 124.229476 201.448 124.229476"></polygon>
                <g id="Group-13" transform="translate(190.000000, 86.806107)">
                    <path d="M32.1978,239.754188 C32.1978,239.754188 -22,203.301072 10.5,152.247482 C43,101.193893 54,112.49592 68,114.344907 C82,116.193893 117.0378,113.893236 127.2498,81.9283594 C137.4588,49.969493 155.3238,25.6772684 202.5438,39.7392898 C249.7638,53.8043166 233.8248,22.9303807 254.8698,10.2688513 C280.1658,-4.95022888 317.4018,-2.44977968 314.8518,24.3999957 C312.2988,51.2467658 303.4788,53.3595251 297.0498,64.4823166 C291.0768,74.817707 297.4788,83.6384021 302.9568,90.6859422 C315.1218,106.337793 319.9578,121.562883 324.4218,152.247482 L166.5318,169.474135 L32.1978,239.754188 Z" id="Fill-5" fill="#BAB9B9"></path>
                    <path d="M68,169.474135 C8,192.025426 -11.1666667,186.283209 10.5,152.247482 C43,101.193893 54,112.49592 68,114.344907 C76.8063397,115.507964 86.5,115.507964 103,109.693893 C106.909601,108.316275 106.026539,130.476654 107.160207,136.027181 C107.666174,138.504434 107.938218,143.911201 107.976341,152.247482 L68,169.474135 Z" id="Fill-5" fill="url(#linearGradient-1)"></path>
                    <path d="M539.8733,223.703483 C551.7293,223.703483 561.3443,220.367548 561.4223,216.241205 C561.4223,216.187109 561.4133,216.139024 561.4133,216.090938 C561.2573,211.988639 551.6813,208.676745 539.8733,208.676745 C528.0683,208.676745 518.4923,211.988639 518.3363,216.090938 C518.3333,216.139024 518.3273,216.187109 518.3273,216.241205 C518.4053,220.367548 528.0203,223.703483 539.8733,223.703483" id="Fill-33" fill="url(#linearGradient-2)"></path>
                    <path d="M40.4652,225.12055 C40.4652,225.12055 131.0772,139.462133 277.8402,143.296956 C424.6062,147.134785 182.1252,185.486026 132.3522,205.943427 C82.5792,226.400828 4.7322,260.917245 40.4652,225.12055" id="Fill-7" fill="#555454"></path>
                    <path d="M89.6019,248.356395 C89.6019,248.356395 80.2569,213.584523 108.2919,202.88248 C136.3269,192.186448 235.1169,152.065058 339.2469,178.809646 C443.3769,205.560245 434.0319,239.75509 434.0319,239.75509 C434.0319,239.75509 431.3619,259.530277 415.3419,272.666651 C399.3189,285.803026 415.3419,301.851582 414.0069,312.547614 C412.6689,323.249657 399.3189,335.286074 399.3189,335.286074 L140.3319,360.696288 C140.3319,360.696288 90.9369,309.87586 89.6019,248.356395" id="Fill-9" fill="#BAB9B9"></path>
                    <path d="M137.6634,351.679644 C137.6634,343.577227 144.7284,301.186799 245.3274,301.186799 C345.9204,301.186799 420.6804,314.560596 399.3204,337.299056 C377.9634,360.031505 245.9034,373.462403 199.0734,370.036307 C175.8924,368.341291 137.6634,370.036307 137.6634,351.679644" id="Fill-11" fill="#555454"></path>
                </g>
                <path d="M672.8987,432.082956 C676.1627,434.421117 698.1557,439.764625 687.3407,425.062464 C676.5257,410.360304 660.3137,423.057897 672.8987,432.082956" id="Fill-47" fill="#400CEC"></path>
                <g id="Group-68" transform="translate(199.000000, 156.677765)">
                    <g id="Group-12" transform="translate(0.000000, 93.000000)" stroke="#FFFFFF" stroke-width="1.5">
                        <polygon id="Stroke-60" points="0 21.5393262 21.501 21.5393262 21.501 0 0 0"></polygon>
                        <polygon id="Stroke-62" points="20.3678082 1 1 1 20.3678082 20.4023319 1 20.4023319"></polygon>
                    </g>
                    <path d="M191.2847,19.860477 C191.2847,30.3431294 182.8037,38.8392471 172.3427,38.8392471 C161.8757,38.8392471 153.3947,30.3431294 153.3947,19.860477 C153.3947,9.38082995 161.8757,0.884712299 172.3427,0.884712299 C182.8037,0.884712299 191.2847,9.38082995 191.2847,19.860477 Z" id="Stroke-65" stroke="#D1D1D1"></path>
                </g>
                <g id="Group-51" transform="translate(412.000000, 317.217872)">
                    <mask id="mask-4" fill="white">
                        <use xlink:href="#path-3"></use>
                    </mask>
                    <g id="Clip-50"></g>
                    <path d="M22.815,9.34362567 C-39.762,19.5437754 44.259,28.1841497 114.465,44.9720214 C159.483,55.7371765 198.825,85.778631 190.218,69.3003102 C179.655,49.0803316 198.984,34.8229626 198.984,34.8229626 C221.376,16.445262 173.232,2.61465241 106.128,2.61164706 C80.196,2.61164706 51.438,4.67632086 22.815,9.34362567" id="Fill-49" mask="url(#mask-4)"></path>
                </g>
                <polyline id="Stroke-67" stroke="#D1D1D1" points="173.5 433.5 117.8602 397.00985 25.0012 397.00985"></polyline>
                <polyline id="Stroke-67" stroke="#D1D1D1" transform="translate(782.250600, 415.254925) scale(-1, 1) translate(-782.250600, -415.254925) " points="856.5 433.5 800.8602 397.00985 708.0012 397.00985"></polyline>
                <path d="M365.7436,462.854311 C365.7436,462.854311 359.1586,439.833349 393.1756,428.839787 C427.1926,417.846226 441.4576,415.649317 483.1576,414.549359 C524.8546,413.452407 581.9176,431.039702 602.7676,418.946183 C623.6146,406.852664 633.4156,413.918236 648.7786,424.911798 C664.1386,435.902354 691.9306,462.439573 631.2976,462.854311 C553.2796,463.383252 580.5616,520.202354 479.8636,506.597145 C423.2206,498.94553 384.3976,496.99506 365.7436,462.854311" id="Fill-17" fill="#BAB9B9"></path>
                <path d="M483.1576,414.549359 C524.8546,413.452407 581.9176,431.039702 602.7676,418.946183 C623.6146,406.852664 633.4156,413.918236 648.7786,424.911798 C664.1386,435.902354 691.9306,462.439573 631.2976,462.854311 C553.2796,463.383252 580.5616,520.202354 479.8636,506.597145 C423.2206,498.94553 441.4576,415.649317 483.1576,414.549359 Z" id="Fill-17" fill="url(#linearGradient-5)"></path>
                <path d="M178.6975,517.079798 C178.6975,517.103841 178.7065,517.127883 178.7095,517.148921 C178.7095,517.076793 178.7185,517.004664 178.7185,516.926525 C178.7185,516.980621 178.6975,517.025702 178.6975,517.079798" id="Fill-21" fill="#9F714B"></path>
                <path d="M242.7406,517.079798 C242.7406,517.025702 242.7196,516.980621 242.7196,516.926525 C242.7196,517.004664 242.7286,517.076793 242.7286,517.148921 C242.7286,517.127883 242.7406,517.103841 242.7406,517.079798" id="Fill-23" fill="#9F714B"></path>
                <path d="M688.3225,372.996221 C688.3225,373.014253 688.3285,373.02928 688.3285,373.047312 C688.3285,372.993216 688.3345,372.94513 688.3375,372.897045 C688.3345,372.930104 688.3225,372.960157 688.3225,372.996221" id="Fill-29" fill="#9F714B"></path>
                <path d="M731.4271,372.996221 C731.4271,372.960157 731.4151,372.930104 731.4121,372.897045 C731.4121,372.94513 731.4211,372.993216 731.4211,373.047312 C731.4211,373.02928 731.4271,373.014253 731.4271,372.996221" id="Fill-31" fill="#9F714B"></path>
                <path d="M269.466841,194.918245 C294.402793,183.53023 269.058115,172.03231 264.123115,165.706053 C259.488115,159.761476 231.968807,140.644417 241.697807,184.892149 C242.846807,190.106427 244.530889,206.30626 269.466841,194.918245 Z" id="Fill-37" fill="url(#linearGradient-6)" transform="translate(259.953184, 177.683111) rotate(38.000000) translate(-259.953184, -177.683111) "></path>
                <path d="M245.253061,145.705411 C252.945061,146.9917 257.211061,126.272834 245.253061,131.574267 C242.028061,133.004812 237.561061,144.422128 245.253061,145.705411 Z" id="Fill-39" fill="#56FF20" transform="translate(246.853346, 138.233783) rotate(-48.000000) translate(-246.853346, -138.233783) "></path>
                <path d="M518.0581,87.2769241 C521.3221,89.6150845 543.3151,94.9615979 532.5001,80.2564321 C521.6851,65.5542717 505.4731,78.2548706 518.0581,87.2769241" id="Fill-41" fill="#F7E170"></path>
                <g id="Group-46" transform="translate(450.612642, 149.932161) rotate(-4.000000) translate(-450.612642, -149.932161) translate(392.112642, 88.932161)">
                    <mask id="mask-8" fill="white">
                        <use xlink:href="#path-7"></use>
                    </mask>
                    <g id="Clip-45"></g>
                    <path d="M0.714019325,35.7351444 L116.215635,120.813529 C97.8617422,106.748503 81.2083786,81.7474158 92.6244689,65.9603249 C104.040559,50.173234 113.891636,51.8645303 116.022594,21.390409 C117.498919,6.27651592 103.457917,0.373379769 88.1029058,0.376385117 C76.1844336,0.376385117 63.8704173,3.95939293 54.8861021,9.37502929 C33.4347014,22.30704 49.2262388,49.8001711 0.714019325,35.7351444 Z" id="Fill-44" fill="url(#linearGradient-9)" mask="url(#mask-8)"></path>
                </g>
                <circle id="Oval-6" stroke="#979797" stroke-width="0.5" cx="441" cy="299" r="299"></circle>
                <path d="M242.7192,526.21103 C260.2602,526.21103 274.4862,531.130784 274.7202,537.222624 C274.4862,519.710463 260.2602,505.579319 242.7192,505.579319 C225.1782,505.579319 210.9522,519.710463 210.7182,537.222624 C210.9522,531.130784 225.1782,526.21103 242.7192,526.21103" id="Fill-19" fill="#A1A1A1"></path>
                <path d="M274.7292,536.447123 C274.7292,536.371989 274.7202,536.299861 274.7202,536.221722 C274.4862,530.129882 260.2602,525.210128 242.7192,525.210128 C225.1782,525.210128 210.9522,530.129882 210.7182,536.221722 C210.7182,536.299861 210.7092,536.371989 210.7092,536.447123 C210.8202,542.578032 225.1062,547.536856 242.7192,547.536856 C260.3322,547.536856 274.6182,542.578032 274.7292,536.447123 Z" id="Fill-25" fill="#BDBDBD"></path>
                <path d="M274.7292,537.447123 C274.7292,537.371989 274.7202,537.299861 274.7202,537.221722 C274.4862,531.129882 260.2602,526.210128 242.7192,526.210128 C225.1782,526.210128 210.9522,531.129882 210.7182,537.221722 C210.7182,537.299861 210.7092,537.371989 210.7092,537.447123 C210.8202,543.578032 225.1062,548.536856 242.7192,548.536856 C260.3322,548.536856 274.6182,543.578032 274.7292,537.447123 Z" id="Fill-25" fill="#555454"></path>
                <path d="M274.7289,547.618121 C274.6179,541.487212 260.3319,536.531394 242.7189,536.531394 C225.1059,536.531394 210.8199,541.487212 210.7089,547.618121 C210.7059,547.645169 210.6969,547.669212 210.6969,547.690249 C210.6969,547.74134 210.7179,547.792431 210.7179,547.840517 C210.9519,565.355682 225.1779,579.486827 242.7189,579.486827 C260.2599,579.486827 274.4859,565.355682 274.7199,547.840517 C274.7199,547.792431 274.7409,547.74134 274.7409,547.690249 C274.7409,547.669212 274.7289,547.645169 274.7289,547.618121" id="Fill-35" fill="#BDBDBD"></path>
                <path d="M274.7289,549.618121 C274.6179,543.487212 260.3319,538.531394 242.7189,538.531394 C225.1059,538.531394 210.8199,543.487212 210.7089,549.618121 C210.7059,549.645169 210.6969,549.669212 210.6969,549.690249 C210.6969,549.74134 210.7179,549.792431 210.7179,549.840517 C210.9519,567.355682 225.1779,581.486827 242.7189,581.486827 C260.2599,581.486827 274.4859,567.355682 274.7199,549.840517 C274.7199,549.792431 274.7409,549.74134 274.7409,549.690249 C274.7409,549.669212 274.7289,549.645169 274.7289,549.618121" id="Fill-35" fill="#A1A1A1"></path>
                <path d="M729.8733,295.77835 C741.6813,295.77835 751.2573,299.090243 751.4133,303.192542 C751.2573,291.402564 741.6813,281.890639 729.8733,281.890639 C718.0683,281.890639 708.4923,291.402564 708.3363,303.192542 C708.4923,299.090243 718.0683,295.77835 729.8733,295.77835" id="Fill-27" fill="#A1A1A1"></path>
                <path d="M729.8733,310.805088 C741.7293,310.805088 751.3443,307.469152 751.4223,303.34281 C751.4223,303.288713 751.4133,303.240628 751.4133,303.192542 C751.2573,299.090243 741.6813,295.77835 729.8733,295.77835 C718.0683,295.77835 708.4923,299.090243 708.3363,303.192542 C708.3333,303.240628 708.3273,303.288713 708.3273,303.34281 C708.4053,307.469152 718.0203,310.805088 729.8733,310.805088" id="Fill-33" fill="#BDBDBD"></path>
                <path d="M751.4223,304.34281 C751.4223,304.288713 751.4133,304.240628 751.4133,304.192542 C751.2573,300.090243 741.6813,296.77835 729.8733,296.77835 C718.0683,296.77835 708.4923,300.090243 708.3363,304.192542 C708.3333,304.240628 708.3273,304.288713 708.3273,304.34281 C708.4053,308.469152 718.0203,311.805088 729.8733,311.805088 C741.7293,311.805088 751.3443,308.469152 751.4223,304.34281 Z" id="Fill-33" fill="#555454"></path>
                <g id="Oval-4">
                    <use fill="black" fill-opacity="1" filter="url(#filter-11)" xlink:href="#path-10"></use>
                    <use fill="#BAB9B9" fill-rule="evenodd" xlink:href="#path-10"></use>
                </g>
                <circle id="Oval-5" stroke="#C2C2C2" stroke-width="0.5" fill="#B8B8B8" cx="468.5" cy="212.5" r="4.5"></circle>
                <circle id="Oval-5" stroke="#C2C2C2" stroke-width="0.5" fill="#B8B8B8" cx="371.5" cy="176.5" r="4.5"></circle>
                <circle id="Oval-5" stroke="#C2C2C2" stroke-width="0.5" cx="507.5" cy="406.5" r="4.5"></circle>
            </g>
        </g>
    </g>
</svg>