<?xml version="1.0" encoding="UTF-8"?>
<svg width="25px" height="25px" viewBox="0 0 25 25" version="1.1" xmlns="http://www.w3.org/2000/svg" xmlns:xlink="http://www.w3.org/1999/xlink">
    <!-- Generator: sketchtool 51.3 (57544) - http://www.bohemiancoding.com/sketch -->
    <title>BA2B6D2B-CAA9-4C25-AFA0-BE58D466BFEA</title>
    <desc>Created with sketchtool.</desc>
    <defs></defs>
    <g id="Symbols" stroke="none" stroke-width="1" fill="none" fill-rule="evenodd">
        <g id="ic/github-logo" fill="#9B9B9B" fill-rule="nonzero">
            <g id="github-logo">
                <path d="M23.2990888,6.24025085 C22.1824601,4.32693765 20.6678246,2.81216492 18.7547836,1.69559096 C16.8414579,0.578960055 14.7526765,0.0207869782 12.486959,0.0207869782 C10.2215262,0.0207869782 8.1320615,0.579130907 6.2191344,1.69559096 C4.30592255,2.81210797 2.79134396,4.32693765 1.67471526,6.24025085 C0.558257403,8.1535071 0,10.2427977 0,12.5080658 C0,15.2291667 0.793849658,17.6760503 2.38194761,19.8493431 C3.96987472,22.0228067 6.02124146,23.5267588 8.53587699,24.3613703 C8.8285877,24.4157012 9.04527335,24.3774873 9.18616173,24.2476968 C9.32710706,24.1177355 9.39749431,23.9549706 9.39749431,23.7600856 C9.39749431,23.7275668 9.39470387,23.4350114 9.38929385,22.8820778 C9.38371298,22.3291442 9.38109339,21.8467724 9.38109339,21.4351902 L9.00711845,21.4998861 C8.76867882,21.5435672 8.46788155,21.5620762 8.10472665,21.5568367 C7.7417426,21.5517681 7.36492027,21.5137251 6.97477221,21.4429924 C6.5844533,21.3728862 6.2214123,21.2102922 5.88536446,20.955552 C5.54948747,20.7008119 5.31104784,20.367366 5.17010251,19.9557268 L5.00751708,19.5815612 C4.89914579,19.3324592 4.72853075,19.0557361 4.49544419,18.7524171 C4.26235763,18.4488133 4.02665148,18.2429937 3.78821185,18.1346167 L3.67437358,18.0531204 C3.59851936,17.9989603 3.52813212,17.933638 3.463041,17.8578367 C3.39800683,17.7820354 3.34931663,17.7061772 3.31679954,17.630205 C3.28422551,17.5541759 3.31121868,17.491815 3.39806378,17.4428944 C3.48490888,17.3939738 3.64185649,17.3702254 3.86958998,17.3702254 L4.19464692,17.4188043 C4.41144647,17.4622576 4.67961276,17.5920481 4.99948747,17.808973 C5.31919134,18.0257271 5.58200456,18.3075188 5.78798405,18.6542342 C6.03741458,19.0987908 6.33792711,19.4375331 6.69037585,19.670632 C7.04253986,19.9037309 7.3976082,20.0200811 7.75523918,20.0200811 C8.11287016,20.0200811 8.42175399,19.9929726 8.68200456,19.9390403 C8.94197039,19.8848233 9.18587699,19.803327 9.41361048,19.6950069 C9.51116173,18.9684308 9.77676538,18.4102577 10.2101936,18.020089 C9.59242597,17.9551653 9.03701595,17.8573811 8.54367882,17.7273628 C8.05062642,17.5971737 7.54111617,17.3858868 7.01548975,17.0929328 C6.48957859,16.8003775 6.05330296,16.4370894 5.70654897,16.0036952 C5.35973804,15.5700731 5.0751139,15.0007947 4.85307517,14.2963724 C4.63092255,13.5916653 4.51981777,12.7787521 4.51981777,11.8574049 C4.51981777,10.5455473 4.94806378,9.4292011 5.80438497,8.50773999 C5.40324601,7.52146906 5.44111617,6.41582962 5.91810934,5.19093558 C6.23246014,5.09326526 6.69863326,5.16656071 7.31640091,5.41036634 C7.93428246,5.65428587 8.38667426,5.86323771 8.67403189,6.03648151 C8.96138952,6.20966836 9.1916287,6.35643012 9.36509112,6.47545693 C10.3733485,6.19372219 11.4138383,6.05282634 12.4868451,6.05282634 C13.5598519,6.05282634 14.6005695,6.19372219 15.6088838,6.47545693 L16.2267084,6.0854021 C16.6492027,5.82513774 17.1481207,5.58662852 17.7222665,5.36981749 C18.296754,5.15312036 18.7360478,5.09343611 19.0396925,5.19110643 C19.5272779,6.41605743 19.5707289,7.52163991 19.1694761,8.50791084 C20.0257403,9.42937195 20.4541572,10.5460029 20.4541572,11.8575758 C20.4541572,12.778923 20.3426538,13.594399 20.1208428,14.3045163 C19.8987472,15.0147476 19.6116743,15.5834565 19.2595103,16.0118391 C18.9069476,16.4401648 18.4678815,16.8006053 17.9422551,17.0931037 C17.4165148,17.3858299 16.9068337,17.5971167 16.4137813,17.7273058 C15.9205011,17.857495 15.3650911,17.9553361 14.7473235,18.0203738 C15.3107631,18.507985 15.5925399,19.2776727 15.5925399,20.3290951 L15.5925399,23.75963 C15.5925399,23.954515 15.6603075,24.1172229 15.7959567,24.2472412 C15.9314351,24.3770317 16.1453872,24.4152455 16.4380979,24.3608577 C18.9530752,23.5263602 21.0044419,22.0223511 22.5923121,19.8488875 C24.1800114,17.6755947 24.9741458,15.2287111 24.9741458,12.5076102 C24.9735763,10.2426269 24.4150342,8.1535071 23.2990888,6.24025085 Z" id="Shape"></path>
            </g>
        </g>
    </g>
</svg>