<?xml version="1.0" encoding="UTF-8"?>
<svg width="134px" height="36px" viewBox="0 0 134 36" version="1.1" xmlns="http://www.w3.org/2000/svg" xmlns:xlink="http://www.w3.org/1999/xlink">
    <!-- Generator: sketchtool 51.3 (57544) - http://www.bohemiancoding.com/sketch -->
    <title>165D5CE9-5E8B-448C-842D-6F0173E1607D</title>
    <desc>Created with sketchtool.</desc>
    <defs></defs>
    <g id="Symbols" stroke="none" stroke-width="1" fill="none" fill-rule="evenodd">
        <g id="il/text&amp;icon" transform="translate(0.000000, -13.000000)">
            <g id="text&amp;icon">
                <path d="M10.56,19.176 L0.96,19.176 L0.96,13.848 L27.6,13.848 L27.6,19.176 L18.048,19.176 L18.048,45 L10.56,45 L10.56,19.176 Z M31.92,13.848 L55.68,13.848 L55.68,19.176 L39.408,19.176 L39.408,26.328 L54.096,26.328 L54.096,31.656 L39.408,31.656 L39.408,39.672 L56.16,39.672 L56.16,45 L31.92,45 L31.92,13.848 Z M69.456,13.848 L78.576,13.848 L89.808,45 L82.224,45 L79.44,36.792 L68.064,36.792 L65.328,45 L57.936,45 L69.456,13.848 Z M77.808,31.8 L73.872,20.088 L73.68,20.088 L69.744,31.8 L77.808,31.8 Z M93.264,13.848 L103.92,13.848 L111.6,36.12 L119.184,13.848 L129.216,13.848 L129.216,45 L122.448,45 L122.448,21.96 L122.304,21.96 L114.432,45 L108.432,45 L100.32,21.96 L100.128,21.96 L100.128,45 L93.264,45 L93.264,13.848 Z" id="Team" fill="#0C2EEC"></path>
                <path d="M14.56,22.176 L4.96,22.176 L4.96,16.848 L31.6,16.848 L31.6,22.176 L22.048,22.176 L22.048,48 L14.56,48 L14.56,22.176 Z M35.92,16.848 L59.68,16.848 L59.68,22.176 L43.408,22.176 L43.408,29.328 L58.096,29.328 L58.096,34.656 L43.408,34.656 L43.408,42.672 L60.16,42.672 L60.16,48 L35.92,48 L35.92,16.848 Z M73.456,16.848 L82.576,16.848 L93.808,48 L86.224,48 L83.44,39.792 L72.064,39.792 L69.328,48 L61.936,48 L73.456,16.848 Z M81.808,34.8 L77.872,23.088 L77.68,23.088 L73.744,34.8 L81.808,34.8 Z M97.264,16.848 L107.92,16.848 L115.6,39.12 L123.184,16.848 L133.216,16.848 L133.216,48 L126.448,48 L126.448,24.96 L126.304,24.96 L118.432,48 L112.432,48 L104.32,24.96 L104.128,24.96 L104.128,48 L97.264,48 L97.264,16.848 Z" id="Team" stroke="#2BD312"></path>
            </g>
        </g>
    </g>
</svg>